<svg width="32" height="32" viewBox="0 0 32 32" fill="none" xmlns="http://www.w3.org/2000/svg">
  <rect width="32" height="32" rx="8" fill="#10B981"/>
  <path d="M9 8H23C23.5523 8 24 8.44772 24 9V11C24 11.5523 23.5523 12 23 12H9C8.44772 12 8 11.5523 8 11V9C8 8.44772 8.44772 8 9 8Z" fill="white"/>
  <path d="M9 14H23C23.5523 14 24 14.4477 24 15V17C24 17.5523 23.5523 18 23 18H9C8.44772 18 8 17.5523 8 17V15C8 14.4477 8.44772 14 9 14Z" fill="white"/>
  <path d="M9 20H23C23.5523 20 24 20.4477 24 21V23C24 23.5523 23.5523 24 23 24H9C8.44772 24 8 23.5523 8 23V21C8 20.4477 8.44772 20 9 20Z" fill="white"/>
</svg>